HIERARCHY
ROOT mixamorig1:Hips
{
	OFFSET -0.000023 99.754364 3.007850
	CHANNELS 6 Xposition Yposition Zposition Xrotation Yrotation Zrotation
	JOINT mixamorig1:Spine
	{
		OFFSET 0.000000 9.717224 -1.180211
		CHANNELS 3 Xrotation Yrotation Zrotation
		JOINT mixamorig1:Spine1
		{
			OFFSET 0.000000 11.336823 -1.376936
			CHANNELS 3 Xrotation Yrotation Zrotation
			JOINT mixamorig1:Spine2
			{
				OFFSET 0.000000 12.956345 -1.573657
				CHANNELS 3 Xrotation Yrotation Zrotation
				JOINT mixamorig1:Neck
				{
					OFFSET 0.000000 14.575974 -1.770441
					CHANNELS 3 Xrotation Yrotation Zrotation
					JOINT mixamorig1:Head
					{
						OFFSET 0.000000 6.720200 1.972157
						CHANNELS 3 Xrotation Yrotation Zrotation
						JOINT mixamorig1:HeadTop_End
						{
							OFFSET 0.000000 20.999847 6.162758
							CHANNELS 3 Xrotation Yrotation Zrotation
							End Site
							{
								OFFSET 0.000000 21.885452 -0.000004
							}
						}
					}
				}
				JOINT mixamorig1:LeftShoulder
				{
					OFFSET 6.140116 12.877853 -1.799548
					CHANNELS 3 Xrotation Yrotation Zrotation
					JOINT mixamorig1:LeftArm
					{
						OFFSET 12.545031 -3.431427 -0.058010
						CHANNELS 3 Xrotation Yrotation Zrotation
						JOINT mixamorig1:LeftForeArm
						{
							OFFSET 25.447281 -1.876373 -1.505625
							CHANNELS 3 Xrotation Yrotation Zrotation
							JOINT mixamorig1:LeftHand
							{
								OFFSET 23.367504 0.877640 0.971305
								CHANNELS 3 Xrotation Yrotation Zrotation
								JOINT mixamorig1:LeftHandThumb1
								{
									OFFSET 3.575478 -1.761887 3.039434
									CHANNELS 3 Xrotation Yrotation Zrotation
									JOINT mixamorig1:LeftHandThumb2
									{
										OFFSET 2.860405 -1.409454 2.431552
										CHANNELS 3 Xrotation Yrotation Zrotation
										JOINT mixamorig1:LeftHandThumb3
										{
											OFFSET 2.578941 -1.801514 1.750709
											CHANNELS 3 Xrotation Yrotation Zrotation
											JOINT mixamorig1:LeftHandThumb4
											{
												OFFSET 2.408989 -1.461151 1.064221
												CHANNELS 3 Xrotation Yrotation Zrotation
												End Site
												{
													OFFSET 2.176476 -1.503357 1.440013
												}
											}
										}
									}
								}
								JOINT mixamorig1:LeftHandIndex1
								{
									OFFSET 11.357018 -1.306473 4.439679
									CHANNELS 3 Xrotation Yrotation Zrotation
									JOINT mixamorig1:LeftHandIndex2
									{
										OFFSET 3.215240 -0.390930 0.624045
										CHANNELS 3 Xrotation Yrotation Zrotation
										JOINT mixamorig1:LeftHandIndex3
										{
											OFFSET 2.938980 -0.735489 0.560646
											CHANNELS 3 Xrotation Yrotation Zrotation
											JOINT mixamorig1:LeftHandIndex4
											{
												OFFSET 2.552437 -0.779205 0.483288
												CHANNELS 3 Xrotation Yrotation Zrotation
												End Site
												{
													OFFSET 2.555870 -0.777603 0.467434
												}
											}
										}
									}
								}
								JOINT mixamorig1:LeftHandMiddle1
								{
									OFFSET 12.195602 -0.657242 2.108765
									CHANNELS 3 Xrotation Yrotation Zrotation
									JOINT mixamorig1:LeftHandMiddle2
									{
										OFFSET 3.379944 -0.547394 0.236206
										CHANNELS 3 Xrotation Yrotation Zrotation
										JOINT mixamorig1:LeftHandMiddle3
										{
											OFFSET 3.043900 -0.829651 0.195068
											CHANNELS 3 Xrotation Yrotation Zrotation
											JOINT mixamorig1:LeftHandMiddle4
											{
												OFFSET 2.806625 -0.600723 0.188473
												CHANNELS 3 Xrotation Yrotation Zrotation
												End Site
												{
													OFFSET 2.806618 -0.600739 0.188510
												}
											}
										}
									}
								}
								JOINT mixamorig1:LeftHandRing1
								{
									OFFSET 12.563576 -0.458878 -0.154891
									CHANNELS 3 Xrotation Yrotation Zrotation
									JOINT mixamorig1:LeftHandRing2
									{
										OFFSET 2.596565 -0.829819 0.032336
										CHANNELS 3 Xrotation Yrotation Zrotation
										JOINT mixamorig1:LeftHandRing3
										{
											OFFSET 2.548286 -0.608398 0.044838
											CHANNELS 3 Xrotation Yrotation Zrotation
											JOINT mixamorig1:LeftHandRing4
											{
												OFFSET 2.167870 -0.507812 0.038965
												CHANNELS 3 Xrotation Yrotation Zrotation
												End Site
												{
													OFFSET 2.167732 -0.508163 0.042114
												}
											}
										}
									}
								}
								JOINT mixamorig1:LeftHandPinky1
								{
									OFFSET 11.341652 -0.310532 -2.253323
									CHANNELS 3 Xrotation Yrotation Zrotation
									JOINT mixamorig1:LeftHandPinky2
									{
										OFFSET 2.648827 -0.669128 -0.120024
										CHANNELS 3 Xrotation Yrotation Zrotation
										JOINT mixamorig1:LeftHandPinky3
										{
											OFFSET 2.075249 -0.703857 -0.105192
											CHANNELS 3 Xrotation Yrotation Zrotation
											JOINT mixamorig1:LeftHandPinky4
											{
												OFFSET 1.850784 -0.684036 -0.097376
												CHANNELS 3 Xrotation Yrotation Zrotation
												End Site
												{
													OFFSET 1.850731 -0.683411 -0.102854
												}
											}
										}
									}
								}
							}
						}
					}
				}
				JOINT mixamorig1:RightShoulder
				{
					OFFSET -6.140133 12.877823 -1.741391
					CHANNELS 3 Xrotation Yrotation Zrotation
					JOINT mixamorig1:RightArm
					{
						OFFSET -12.545002 -3.431366 0.058123
						CHANNELS 3 Xrotation Yrotation Zrotation
						JOINT mixamorig1:RightForeArm
						{
							OFFSET -25.447330 -1.876465 -1.671036
							CHANNELS 3 Xrotation Yrotation Zrotation
							JOINT mixamorig1:RightHand
							{
								OFFSET -23.367435 0.877640 0.912149
								CHANNELS 3 Xrotation Yrotation Zrotation
								JOINT mixamorig1:RightHandThumb1
								{
									OFFSET -3.655281 -1.787811 3.110017
									CHANNELS 3 Xrotation Yrotation Zrotation
									JOINT mixamorig1:RightHandThumb2
									{
										OFFSET -2.924309 -1.430252 2.488113
										CHANNELS 3 Xrotation Yrotation Zrotation
										JOINT mixamorig1:RightHandThumb3
										{
											OFFSET -2.528549 -1.776962 1.706924
											CHANNELS 3 Xrotation Yrotation Zrotation
											JOINT mixamorig1:RightHandThumb4
											{
												OFFSET -2.443375 -1.162323 1.073468
												CHANNELS 3 Xrotation Yrotation Zrotation
												End Site
												{
													OFFSET -2.204521 -1.202744 1.472025
												}
											}
										}
									}
								}
								JOINT mixamorig1:RightHandIndex1
								{
									OFFSET -11.888382 -1.247833 4.755188
									CHANNELS 3 Xrotation Yrotation Zrotation
									JOINT mixamorig1:RightHandIndex2
									{
										OFFSET -3.042244 -0.516434 0.442817
										CHANNELS 3 Xrotation Yrotation Zrotation
										JOINT mixamorig1:RightHandIndex3
										{
											OFFSET -2.738869 -0.708374 0.392164
											CHANNELS 3 Xrotation Yrotation Zrotation
											JOINT mixamorig1:RightHandIndex4
											{
												OFFSET -2.432571 -0.620773 0.348507
												CHANNELS 3 Xrotation Yrotation Zrotation
												End Site
												{
													OFFSET -2.433441 -0.620270 0.343348
												}
											}
										}
									}
								}
								JOINT mixamorig1:RightHandMiddle1
								{
									OFFSET -12.008347 -0.748550 2.098396
									CHANNELS 3 Xrotation Yrotation Zrotation
									JOINT mixamorig1:RightHandMiddle2
									{
										OFFSET -3.442291 -0.415817 0.287318
										CHANNELS 3 Xrotation Yrotation Zrotation
										JOINT mixamorig1:RightHandMiddle3
										{
											OFFSET -3.106178 -0.837677 0.240102
											CHANNELS 3 Xrotation Yrotation Zrotation
											JOINT mixamorig1:RightHandMiddle4
											{
												OFFSET -2.855728 -0.604996 0.227592
												CHANNELS 3 Xrotation Yrotation Zrotation
												End Site
												{
													OFFSET -2.855972 -0.604736 0.225131
												}
											}
										}
									}
								}
								JOINT mixamorig1:RightHandRing1
								{
									OFFSET -12.328026 -0.608994 -0.015787
									CHANNELS 3 Xrotation Yrotation Zrotation
									JOINT mixamorig1:RightHandRing2
									{
										OFFSET -2.763496 -0.569153 -0.029507
										CHANNELS 3 Xrotation Yrotation Zrotation
										JOINT mixamorig1:RightHandRing3
										{
											OFFSET -2.573975 -0.772354 -0.042469
											CHANNELS 3 Xrotation Yrotation Zrotation
											JOINT mixamorig1:RightHandRing4
											{
												OFFSET -2.323860 -0.456833 -0.023427
												CHANNELS 3 Xrotation Yrotation Zrotation
												End Site
												{
													OFFSET -2.323814 -0.457275 -0.019363
												}
											}
										}
									}
								}
								JOINT mixamorig1:RightHandPinky1
								{
									OFFSET -11.463135 -0.329407 -2.202621
									CHANNELS 3 Xrotation Yrotation Zrotation
									JOINT mixamorig1:RightHandPinky2
									{
										OFFSET -2.569016 -0.599854 -0.108848
										CHANNELS 3 Xrotation Yrotation Zrotation
										JOINT mixamorig1:RightHandPinky3
										{
											OFFSET -2.016190 -0.737000 -0.102787
											CHANNELS 3 Xrotation Yrotation Zrotation
											JOINT mixamorig1:RightHandPinky4
											{
												OFFSET -1.796242 -0.576553 -0.085258
												CHANNELS 3 Xrotation Yrotation Zrotation
												End Site
												{
													OFFSET -1.796211 -0.576279 -0.087722
												}
											}
										}
									}
								}
							}
						}
					}
				}
			}
		}
	}
	JOINT mixamorig1:LeftUpLeg
	{
		OFFSET 8.078197 -5.402374 -0.535866
		CHANNELS 3 Xrotation Yrotation Zrotation
		JOINT mixamorig1:LeftLeg
		{
			OFFSET 3.743073 -42.540520 -2.695453
			CHANNELS 3 Xrotation Yrotation Zrotation
			JOINT mixamorig1:LeftFoot
			{
				OFFSET 3.359008 -41.940849 -2.882240
				CHANNELS 3 Xrotation Yrotation Zrotation
				JOINT mixamorig1:LeftToeBase
				{
					OFFSET 1.133368 -9.116436 13.321875
					CHANNELS 3 Xrotation Yrotation Zrotation
					JOINT mixamorig1:LeftToe_End
					{
						OFFSET 0.591574 -0.054443 6.177378
						CHANNELS 3 Xrotation Yrotation Zrotation
						End Site
						{
							OFFSET 0.591574 -0.054443 6.177376
						}
					}
				}
			}
		}
	}
	JOINT mixamorig1:RightUpLeg
	{
		OFFSET -8.078202 -5.402405 -0.751774
		CHANNELS 3 Xrotation Yrotation Zrotation
		JOINT mixamorig1:RightLeg
		{
			OFFSET -3.743069 -42.540482 -2.464511
			CHANNELS 3 Xrotation Yrotation Zrotation
			JOINT mixamorig1:RightFoot
			{
				OFFSET -3.359002 -41.940781 -2.968969
				CHANNELS 3 Xrotation Yrotation Zrotation
				JOINT mixamorig1:RightToeBase
				{
					OFFSET -1.133408 -9.116797 13.416489
					CHANNELS 3 Xrotation Yrotation Zrotation
					JOINT mixamorig1:RightToe_End
					{
						OFFSET -0.591589 -0.054615 6.151403
						CHANNELS 3 Xrotation Yrotation Zrotation
						End Site
						{
							OFFSET -0.591589 -0.054615 6.151402
						}
					}
				}
			}
		}
	}
}
MOTION
Frames: 4
Frame Time: 0.041667
116.993134 120.726311 -234.196838 6.748606 -5.333717 13.239238 14.848418 -5.486369 -3.511562 0.000000 -0.000001 -0.000001 -4.364912 -1.390887 3.748460 -2.120825 -1.237585 -9.312129 -19.036936 -1.235199 6.088776 -0.000000 -0.000000 0.000002 0.000002 0.000095 -0.000011 14.237639 -37.285057 -80.079160 73.763413 -66.068037 113.648897 -29.486234 3.956152 1.048186 -0.000113 0.000076 -0.000288 -0.000183 -0.000392 0.000558 0.000012 -0.000003 0.000008 -0.000008 0.000000 -0.000003 -0.000018 -0.000166 -0.000063 5.369636 -1.148502 -7.697221 0.000000 -0.000008 0.000003 -0.000005 -0.000009 0.000009 0.000020 0.000345 0.000120 0.958880 -0.151693 -2.905201 0.000003 -0.000001 -0.000008 -0.000000 -0.000000 -0.000007 -0.000012 -0.000257 -0.000172 0.715863 -0.155046 -10.277570 -0.000001 -0.000002 -0.000003 0.000005 0.000001 -0.000003 0.000162 0.000117 0.000158 -0.725241 0.237415 -2.222187 0.000008 0.000002 -0.000003 -0.000001 -0.000000 0.000004 0.000017 -0.000107 -0.000069 34.233864 27.784089 75.323784 51.369378 66.552209 -87.973977 -10.619741 -1.483699 -0.138962 -0.000013 -0.000009 0.000162 0.000190 0.000005 -0.000357 0.000016 0.000006 -0.000006 -0.000007 -0.000013 0.000010 -0.000039 -0.000170 0.000289 5.369849 1.148986 7.696547 0.000001 0.000013 -0.000000 0.000007 -0.000002 -0.000005 -0.000098 -0.000107 0.000121 0.958790 0.152181 2.905034 0.000000 -0.000008 0.000006 0.000000 -0.000002 0.000003 0.000038 0.000322 -0.000120 0.715608 0.155545 10.277790 -0.000001 -0.000012 -0.000004 -0.000000 0.000004 -0.000000 -0.000051 0.000049 -0.000190 -0.724781 -0.237282 2.221653 0.000004 0.000000 -0.000008 0.000006 -0.000001 -0.000003 -5.887414 -1.744474 -6.718850 55.405555 -0.534352 0.498305 29.380759 -6.646161 3.272727 -0.000003 0.000001 0.000009 0.000001 -0.000001 0.000003 -47.223149 1.273470 -2.702433 41.471300 -0.393136 -0.361039 2.485007 -0.274543 -0.273244 0.000002 0.000005 0.000001 -0.000001 0.000004 0.000001 
112.358276 119.125626 -214.974289 5.154444 -6.125647 9.926576 16.922403 -1.431458 -0.718274 -0.000004 -0.000001 0.000000 -5.827450 -0.319762 2.318076 -0.801792 -2.526175 -8.628474 -18.410346 -3.762534 6.242653 0.000007 -0.000004 0.000003 0.000005 0.000098 -0.000011 17.215176 -34.906932 -79.073920 55.502322 -66.866637 93.136876 -28.581297 3.846902 0.980494 -0.000115 0.000068 -0.000287 -0.000183 -0.000394 0.000571 0.000012 0.000003 0.000010 0.000003 -0.000008 -0.000003 -0.000020 -0.000160 -0.000062 5.369642 -1.148495 -7.697206 0.000004 -0.000007 0.000004 0.000000 -0.000011 -0.000000 0.000018 0.000351 0.000114 0.958882 -0.151697 -2.905197 -0.000002 -0.000001 -0.000002 0.000003 0.000007 -0.000000 -0.000005 -0.000244 -0.000176 0.715864 -0.155043 -10.277574 0.000001 -0.000007 0.000002 0.000007 0.000004 -0.000000 0.000160 0.000119 0.000159 -0.725246 0.237410 -2.222179 0.000001 -0.000007 -0.000000 0.000003 -0.000002 0.000002 0.000023 -0.000108 -0.000081 30.144015 28.260307 76.289395 48.120428 66.380204 -84.620122 -9.504326 -1.329867 -0.110372 -0.000018 -0.000002 0.000161 0.000201 0.000017 -0.000365 0.000016 -0.000009 -0.000014 -0.000014 -0.000027 0.000002 -0.000035 -0.000162 0.000286 5.369852 1.148990 7.696547 -0.000005 0.000007 0.000001 -0.000004 -0.000003 -0.000009 -0.000094 -0.000100 0.000114 0.958784 0.152185 2.905033 0.000003 -0.000003 0.000008 0.000001 -0.000009 -0.000000 0.000036 0.000323 -0.000125 0.715610 0.155555 10.277793 -0.000004 0.000001 0.000002 0.000001 0.000008 -0.000001 -0.000053 0.000046 -0.000195 -0.724780 -0.237285 2.221658 0.000002 0.000013 -0.000002 -0.000006 -0.000009 -0.000003 -15.715439 2.610402 1.563276 68.186844 -0.475994 0.695092 18.948862 -5.587260 1.627071 -0.000008 -0.000004 0.000002 -0.000002 0.000002 0.000004 -39.935136 -4.046007 2.154115 47.485384 -0.154252 -0.419172 -4.282222 -6.860508 -1.498890 -0.000008 -0.000000 0.000001 -0.000001 0.000004 -0.000000 
107.652908 116.965691 -196.335724 5.117679 -6.172591 6.317976 17.427808 0.745585 2.245655 -0.000003 0.000001 -0.000001 -6.233137 0.110020 2.297052 -3.144223 -2.895157 -10.014140 -14.957274 -4.423816 6.771838 0.000003 0.000004 0.000001 0.000004 0.000103 -0.000012 17.954453 -30.531512 -81.963281 45.420068 -66.090932 81.500180 -26.723160 3.616178 0.859346 -0.000113 0.000082 -0.000283 -0.000195 -0.000405 0.000552 0.000004 0.000003 0.000009 -0.000002 -0.000002 0.000014 -0.000014 -0.000160 -0.000067 5.369645 -1.148506 -7.697219 -0.000001 -0.000005 -0.000001 0.000004 0.000002 -0.000013 0.000026 0.000357 0.000117 0.958880 -0.151699 -2.905205 0.000000 0.000005 -0.000007 -0.000001 0.000002 -0.000003 -0.000007 -0.000246 -0.000169 0.715862 -0.155027 -10.277578 -0.000000 -0.000002 0.000000 0.000001 0.000004 -0.000000 0.000172 0.000118 0.000152 -0.725239 0.237412 -2.222180 0.000001 0.000002 0.000001 0.000001 -0.000002 0.000009 0.000023 -0.000105 -0.000073 27.421249 31.889358 72.268408 51.886751 66.683369 -88.975570 -7.586916 -1.063110 -0.070406 -0.000025 -0.000008 0.000166 0.000186 0.000010 -0.000348 0.000013 0.000003 0.000001 -0.000007 -0.000006 0.000002 -0.000041 -0.000174 0.000290 5.369855 1.148976 7.696550 0.000002 -0.000004 -0.000003 0.000009 0.000003 -0.000000 -0.000093 -0.000105 0.000125 0.958791 0.152182 2.905034 0.000001 0.000007 -0.000002 -0.000005 0.000004 -0.000000 0.000033 0.000313 -0.000118 0.715603 0.155551 10.277796 0.000001 -0.000005 -0.000002 0.000001 0.000006 0.000001 -0.000061 0.000044 -0.000194 -0.724788 -0.237270 2.221654 -0.000004 0.000005 -0.000004 0.000001 0.000000 -0.000001 -27.791582 3.419579 9.145200 75.054060 -0.470466 0.802863 5.323271 -3.378310 0.347408 -0.000008 0.000000 0.000002 0.000003 0.000004 0.000004 -31.756842 -2.744311 8.361699 50.768164 0.324914 -0.411357 -12.511920 -12.429953 -4.390274 -0.000014 -0.000002 0.000001 -0.000003 0.000003 0.000002 
103.929237 115.375610 -177.550873 5.634084 -3.285500 4.567852 15.918200 1.605773 3.914711 0.000000 0.000001 0.000001 -6.469843 0.274008 1.578254 -3.432909 -3.792295 -10.522997 -13.144549 -6.195621 8.092655 -0.000003 -0.000001 0.000002 -0.000007 0.000100 -0.000012 22.960198 -28.696545 -81.820865 49.634066 -66.518201 86.380972 -28.210140 3.801432 0.956159 -0.000112 0.000087 -0.000279 -0.000178 -0.000397 0.000555 0.000008 0.000010 0.000001 -0.000008 0.000002 0.000004 -0.000016 -0.000161 -0.000067 5.369637 -1.148508 -7.697216 -0.000002 -0.000017 0.000004 0.000003 0.000000 0.000000 0.000021 0.000353 0.000120 0.958896 -0.151684 -2.905195 0.000001 -0.000006 -0.000003 -0.000005 -0.000008 -0.000004 -0.000008 -0.000244 -0.000169 0.715863 -0.155045 -10.277567 0.000002 -0.000015 0.000004 0.000001 0.000012 -0.000004 0.000168 0.000137 0.000151 -0.725237 0.237410 -2.222179 0.000002 -0.000000 0.000010 0.000009 -0.000002 0.000005 0.000023 -0.000107 -0.000074 27.092254 34.674026 69.638560 65.107603 66.822930 -104.155897 -7.988223 -1.118942 -0.078120 -0.000021 -0.000015 0.000168 0.000186 0.000011 -0.000347 0.000004 -0.000013 -0.000015 -0.000017 -0.000000 0.000010 -0.000041 -0.000165 0.000290 5.369852 1.148985 7.696555 0.000002 -0.000005 0.000007 0.000002 0.000001 -0.000010 -0.000091 -0.000105 0.000123 0.958786 0.152179 2.905026 -0.000004 0.000006 0.000008 0.000011 0.000004 0.000007 0.000035 0.000314 -0.000120 0.715613 0.155544 10.277795 -0.000009 0.000001 -0.000007 0.000002 -0.000002 -0.000002 -0.000057 0.000040 -0.000191 -0.724773 -0.237283 2.221653 0.000008 -0.000003 -0.000007 0.000004 -0.000003 0.000001 -40.508722 0.647659 11.098219 74.644781 -0.536575 0.791433 -0.830751 -1.181949 0.309619 0.000015 -0.000008 0.000004 -0.000000 0.000001 0.000008 -21.845388 -2.569657 11.904244 49.318269 0.754621 -0.344530 -16.837569 -14.797998 -6.413076 0.000004 0.000007 0.000000 0.000002 0.000002 -0.000001 
